<?xml version="1.0" standalone="no"?>
<!DOCTYPE svg PUBLIC "-//W3C//DTD SVG 20010904//EN"
 "http://www.w3.org/TR/2001/REC-SVG-20010904/DTD/svg10.dtd">
<svg version="1.0" xmlns="http://www.w3.org/2000/svg"
 width="500.000000pt" height="500.000000pt" viewBox="0 0 500.000000 500.000000"
 preserveAspectRatio="xMidYMid meet">
<metadata>
Created by potrace 1.11, written by Peter Selinger 2001-2013
</metadata>
<g transform="translate(0.000000,500.000000) scale(0.100000,-0.100000)"
fill="#000000" stroke="none">
<path d="M2762 3903 c-24 -12 -77 -79 -204 -259 -95 -134 -173 -242 -175 -240
-2 2 15 74 38 161 47 184 47 210 -10 266 -72 72 -186 77 -251 11 -34 -35 -40
-50 -99 -282 -35 -135 -71 -274 -81 -310 l-18 -65 -3 150 c-4 134 -6 154 -27
190 -67 116 -216 124 -289 14 l-28 -43 0 -785 c0 -775 0 -787 22 -867 52 -194
146 -357 283 -487 137 -132 287 -214 470 -260 116 -28 339 -30 455 -3 188 43
376 147 500 275 l39 41 -119 120 -118 119 -71 -65 c-123 -114 -278 -174 -452
-174 -189 0 -338 62 -474 199 -138 138 -194 277 -193 471 0 85 5 120 26 185
74 225 260 399 483 451 84 19 242 19 319 -1 102 -26 220 -90 294 -160 l67 -64
123 123 123 123 -69 62 c-194 177 -359 244 -675 279 l-68 7 89 125 c48 69 143
203 210 298 68 95 127 187 132 205 35 123 -130 249 -249 190z"/>
<path d="M2515 2437 c-109 -37 -196 -113 -243 -215 -22 -48 -27 -71 -27 -147
0 -81 3 -97 32 -157 39 -82 100 -145 179 -184 54 -27 68 -29 169 -29 102 0
114 2 168 30 78 39 159 127 187 202 18 49 21 74 18 153 -3 85 -7 102 -37 158
-68 127 -177 194 -321 199 -52 2 -101 -2 -125 -10z m190 -235 c43 -25 79 -100
70 -150 -19 -115 -158 -169 -245 -95 -78 65 -81 162 -7 231 47 44 119 49 182
14z"/>
</g>
</svg>
